<svg width="16" height="16" viewBox="0 0 16 16" fill="none" xmlns="http://www.w3.org/2000/svg">
<rect width="16" height="16" rx="3" fill="#F6F5F5"/>
<path d="M1.48865 4.26647H4.29471C4.7148 4.26647 5.08238 4.34524 5.39744 4.50277C5.71251 4.65374 5.95209 4.8605 6.11619 5.12306C6.28685 5.38561 6.37218 5.68755 6.37218 6.02887C6.37218 6.31768 6.31639 6.58024 6.2048 6.81654C6.09978 7.04628 5.95209 7.23663 5.76174 7.3876C5.57138 7.532 5.36134 7.63046 5.1316 7.68297V7.57467C5.38103 7.61405 5.61405 7.70923 5.83066 7.8602C6.05383 8.0046 6.23106 8.2048 6.36233 8.46079C6.50017 8.71022 6.5691 8.99575 6.5691 9.31738C6.5691 9.68496 6.48048 10.0132 6.30326 10.302C6.1326 10.5842 5.87661 10.8074 5.53528 10.9715C5.20053 11.129 4.79356 11.2078 4.3144 11.2078H1.48865V4.26647ZM4.17656 10.2035C4.53757 10.2035 4.81326 10.1149 5.00361 9.93767C5.20053 9.76044 5.29898 9.51101 5.29898 9.18938C5.29898 8.86775 5.20053 8.61176 5.00361 8.42141C4.80669 8.23106 4.53101 8.13588 4.17656 8.13588H2.53231V7.17099H4.15687C4.36691 7.17099 4.54742 7.13161 4.69839 7.05284C4.85592 6.97407 4.97407 6.86249 5.05284 6.71808C5.1316 6.57368 5.17099 6.40301 5.17099 6.2061C5.17099 6.00918 5.1316 5.8418 5.05284 5.70396C4.97407 5.55956 4.85592 5.45125 4.69839 5.37905C4.54742 5.30685 4.36691 5.27074 4.15687 5.27074H2.69968V10.2035H4.17656Z" fill="#060121"/>
<path d="M7.9342 3.33112H8.52495V12.4877H7.9342V3.33112Z" fill="#060121"/>
<path d="M10.4907 4.26647H11.7312V10.1444H15V11.2078H10.4907V4.26647Z" fill="#060121"/>
</svg>
